Coordinates
version=1
nRows=24
nColumns=24
inDegrees=yes

Units are S.I. units (second, meters, Newtons, ...)
Angles are in degrees.

endheader
time	pelvis_tilt	pelvis_list	pelvis_rotation	pelvis_tx	pelvis_ty	pelvis_tz	hip_flexion_r	hip_adduction_r	hip_rotation_r	knee_angle_r	ankle_angle_r	subtalar_angle_r	mtp_angle_r	hip_flexion_l	hip_adduction_l	hip_rotation_l	knee_angle_l	ankle_angle_l	subtalar_angle_l	mtp_angle_l	lumbar_extension	lumbar_bending	lumbar_rotation
      0.70016667	      3.15640632	      3.72426071	     -1.18764424	     -0.48492746	      1.02454309	      0.29628175	      8.03591856	     -1.42491561	     -1.16073171	    -18.03403114	      8.24198467	     -6.46200707	      9.53848944	     14.23346636	      2.43562947	     -7.05252026	    -64.63703494	      0.17053348	    -18.72021091	      1.23574572	    -10.92592320	     -3.52996645	      4.41920905
      0.70433333	      3.16348717	      3.82976406	     -1.36621397	     -0.47980629	      1.02526548	      0.29663837	      7.60243411	     -1.53427620	     -1.10359915	    -17.78004660	      8.37813990	     -6.30828352	      9.54922303	     14.65940341	      2.56622075	     -7.19694814	    -64.04037151	      0.39612500	    -18.48564435	      1.20720994	    -10.94133254	     -3.63495005	      4.66754207
      0.70850000	      3.14484891	      3.94334634	     -1.54561689	     -0.47469195	      1.02591871	      0.29700662	      7.19480259	     -1.65263316	     -1.03966806	    -17.51375989	      8.47510218	     -6.16460542	      9.55927610	     15.10111977	      2.69876633	     -7.34290874	    -63.38484763	      0.59928709	    -18.25190689	      1.19234225	    -10.94454037	     -3.78615698	      4.84274608
      0.71266667	      3.12817149	      4.03582362	     -1.72970539	     -0.46956676	      1.02650430	      0.29735459	      6.79051954	     -1.75440445	     -0.99691225	    -17.26306022	      8.64629795	     -5.97135823	      9.58074235	     15.52731004	      2.80169344	     -7.49052571	    -62.68570390	      0.83805088	    -17.94170138	      1.17286750	    -10.93753791	     -3.89118137	      5.13958993
      0.71683333	      3.10129498	      4.13051197	     -1.92109976	     -0.46443687	      1.02703932	      0.29769402	      6.39757155	     -1.86078510	     -0.94412857	    -17.00723412	      8.76826358	     -5.80105794	      9.60259714	     15.94609426	      2.90319318	     -7.64086189	    -61.92367824	      1.05289435	    -17.62311252	      1.16407262	    -10.91801920	     -4.00656310	      5.35807679
      0.72100000	      3.07341984	      4.22814667	     -2.11397170	     -0.45930393	      1.02755142	      0.29802825	      5.99971820	     -1.97276776	     -0.88786703	    -16.73310456	      8.84203075	     -5.64476595	      9.61660791	     16.34852876	      3.00535589	     -7.78777850	    -61.09835480	      1.23005197	    -17.31265953	      1.16630868	    -10.90478154	     -4.13902829	      5.50146188
      0.72516667	      3.07467100	      4.31704007	     -2.32219538	     -0.45416774	      1.02804219	      0.29835070	      5.58718181	     -2.08358680	     -0.85162481	    -16.49484736	      8.98424254	     -5.44711002	      9.63887261	     16.69649086	      3.09089523	     -7.94749533	    -60.21690370	      1.45442438	    -16.91467149	      1.17549335	    -10.90596311	     -4.23184425	      5.74626046
      0.72933333	      3.05431022	      4.37178371	     -2.51311196	     -0.44902443	      1.02843082	      0.29865805	      5.18126556	     -2.15688455	     -0.82055560	    -16.22915164	      9.15056220	     -5.23240672	      9.67421163	     17.06374810	      3.13489296	     -8.08563793	    -59.31865731	      1.68306097	    -16.52806304	      1.19469910	    -10.89692900	     -4.30003443	      6.05039285
      0.73350000	      3.06604707	      4.44124324	     -2.71605492	     -0.44388291	      1.02884616	      0.29895891	      4.74514260	     -2.25222672	     -0.78803140	    -15.96626810	      9.28468736	     -5.03325912	      9.70925926	     17.36992984	      3.19430084	     -8.23098805	    -58.34468249	      1.87309344	    -16.14227574	      1.22038445	    -10.92102749	     -4.38755696	      6.27870988
      0.73766667	      3.02852106	      4.50723184	     -2.91982092	     -0.43872817	      1.02913883	      0.29925025	      4.36935773	     -2.34327532	     -0.75084819	    -15.71464797	      9.37944763	     -4.86126849	      9.73177504	     17.71313605	      3.24329467	     -8.37713662	    -57.32405068	      2.02637734	    -15.76183547	      1.24162296	    -10.87965990	     -4.47008006	      6.44168748
      0.74183333	      3.00166254	      4.56231147	     -3.12256104	     -0.43357074	      1.02938463	      0.29953723	      3.98193256	     -2.42581589	     -0.71990217	    -15.46744584	      9.52606502	     -4.66038560	      9.75842432	     18.02886424	      3.27535416	     -8.52079516	    -56.26660011	      2.20409510	    -15.34792340	      1.26903795	    -10.85626547	     -4.54052460	      6.66434794
      0.74600000	      2.97955811	      4.60023289	     -3.31855976	     -0.42840644	      1.02958301	      0.29980565	      3.58517821	     -2.49260062	     -0.69840624	    -15.21555368	      9.67503364	     -4.45860149	      9.78667843	     18.32458508	      3.28823549	     -8.65159483	    -55.17354385	      2.36244609	    -14.94942254	      1.30031474	    -10.83798265	     -4.58988424	      6.89525268
      0.75016667	      2.96956310	      4.63479794	     -3.51366204	     -0.42323765	      1.02975856	      0.30005871	      3.17417603	     -2.55912232	     -0.67600928	    -14.96154405	      9.82384194	     -4.26008148	      9.81556368	     18.58618458	      3.29795069	     -8.77684335	    -54.03121204	      2.49935642	    -14.55921973	      1.33417526	    -10.83427020	     -4.63669108	      7.11950461
      0.75433333	      2.94521146	      4.63846401	     -3.69689410	     -0.41807450	      1.02983046	      0.30029010	      2.77697625	     -2.59331633	     -0.66598272	    -14.71118927	     10.02117012	     -4.03251370	      9.86265133	     18.85587521	      3.26969186	     -8.88903339	    -52.87904154	      2.66186129	    -14.16105836	      1.39303426	    -10.82414428	     -4.64366088	      7.42399800
      0.75850000	      2.93431348	      4.66029637	     -3.88386332	     -0.41290105	      1.02991207	      0.30051828	      2.36864674	     -2.65029239	     -0.64982355	    -14.46327669	     10.17684830	     -3.83827172	      9.90796688	     19.08210223	      3.26512804	     -8.99682204	    -51.65330115	      2.75088685	    -13.80086020	      1.45372756	    -10.81981714	     -4.67463428	      7.64481385
      0.76266667	      2.88829867	      4.66450608	     -4.05728128	     -0.40772229	      1.02989136	      0.30072145	      1.99864578	     -2.68574673	     -0.63106972	    -14.22121299	     10.29262686	     -3.68142031	      9.93718783	     19.33247194	      3.24094967	     -9.08355704	    -50.39869421	      2.79641045	    -13.44941283	      1.49544292	    -10.76964951	     -4.68314833	      7.79607413
      0.76683333	      2.84305807	      4.66662535	     -4.22034822	     -0.40252447	      1.02981972	      0.30091166	      1.61845022	     -2.71971741	     -0.61451542	    -13.96427029	     10.44289856	     -3.51655667	      9.96451568	     19.56640348	      3.21291002	     -9.16565038	    -49.11528338	      2.83512682	    -13.10575741	      1.53576153	    -10.74202273	     -4.69065904	      7.96764124
      0.77100000	      2.84316882	      4.64163422	     -4.38562767	     -0.39734868	      1.02974961	      0.30109054	      1.19804881	     -2.73049259	     -0.60593025	    -13.73154156	     10.64074324	     -3.31218478	     10.01125471	     19.73239039	      3.16073405	     -9.23141820	    -47.80183820	      2.89752298	    -12.77231800	      1.61126127	    -10.75264576	     -4.66296352	      8.23584080
      0.77516667	      2.77783978	      4.63276379	     -4.53196313	     -0.39214582	      1.02956515	      0.30124198	      0.85024875	     -2.75333287	     -0.59907227	    -13.50371820	     10.76547243	     -3.18194286	     10.03724396	     19.95001227	      3.12696408	     -9.27867178	    -46.43842061	      2.85428429	    -12.47181003	      1.65526617	    -10.68543536	     -4.65666334	      8.35997727
      0.77933333	      2.73110062	      4.60983441	     -4.67181284	     -0.38694870	      1.02935964	      0.30138341	      0.47966096	     -2.76268230	     -0.59054457	    -13.27472102	     10.92310477	     -3.03347335	     10.06441471	     20.13032255	      3.07807340	     -9.31847665	    -45.04633427	      2.81423280	    -12.17545974	      1.70401879	    -10.64570126	     -4.63233914	      8.51808569
      0.78350000	      2.70255262	      4.57240364	     -4.80249972	     -0.38175602	      1.02913226	      0.30150528	      0.08586106	     -2.75875156	     -0.58515252	    -13.04323256	     11.11437347	     -2.85840033	     10.10851997	     20.27381649	      3.01987348	     -9.33710858	    -43.62709065	      2.77576366	    -11.91355861	      1.79525410	    -10.64203542	     -4.58691763	      8.74323401
      0.78766667	      2.61727130	      4.53915094	     -4.91153721	     -0.37654354	      1.02879419	      0.30160724	     -0.24118665	     -2.75214792	     -0.58681204	    -12.82872412	     11.24600244	     -2.75906992	     10.12954245	     20.46137809	      2.96446476	     -9.33878880	    -42.16937379	      2.65676777	    -11.65060529	      1.84111617	    -10.55218184	     -4.54946075	      8.83398027
      0.79183333	      2.59496462	      4.51054378	     -5.02646663	     -0.37133514	      1.02851684	      0.30169611	     -0.63700828	     -2.75956640	     -0.58486150	    -12.61208959	     11.43376223	     -2.60279527	     10.16657503	     20.55266609	      2.92556736	     -9.33155250	    -40.66010518	      2.53722994	    -11.44343722	      1.93643933	    -10.56043215	     -4.51455016	      9.01363368
      0.79600000	      2.50308954	      4.46562846	     -5.10716068	     -0.36610185	      1.02810016	      0.30176145	     -0.96163724	     -2.73834779	     -0.60112875	    -12.39966924	     11.56564282	     -2.53027487	     10.18196369	     20.70922307	      2.86121821	     -9.31001779	    -39.13891780	      2.37449177	    -11.19630321	      1.97895324	    -10.46913934	     -4.45281265	      9.08199748
